<svg width="50" height="61" viewBox="0 0 50 61" fill="none" xmlns="http://www.w3.org/2000/svg">
<path d="M33.924 9.73649C35.9893 7.08108 37.4645 3.54054 37.0219 0C33.924 0.147523 30.2359 2.06532 28.023 4.5732C26.1052 6.78604 24.335 10.4741 24.7775 13.8671C28.3181 14.3097 31.7111 12.3919 33.924 9.73649ZM37.0219 14.7523C32.0062 14.4572 27.728 17.5552 25.3676 17.5552C23.0073 17.5552 19.3192 14.8998 15.3361 14.8998C10.1728 15.0473 5.45204 17.8502 2.79663 22.571C-2.5142 31.8649 1.3214 45.5845 6.63222 53.1081C9.14011 56.7962 12.2381 60.9268 16.2212 60.7793C20.0568 60.6318 21.532 58.2714 26.1052 58.2714C30.6785 58.2714 32.0062 60.7793 36.1368 60.6318C40.2674 60.4843 42.9229 56.9437 45.4307 53.1081C48.3812 48.83 49.5614 44.6993 49.5614 44.5518C49.4139 44.4043 41.4476 41.4538 41.4476 32.3074C41.3001 24.6363 47.6436 20.9482 47.9386 20.8007C44.5456 15.4899 38.9397 14.8998 37.0219 14.7523Z" fill="black"/>
</svg>
