<svg width="33" height="37" viewBox="0 0 33 37" fill="none" xmlns="http://www.w3.org/2000/svg">
<rect y="11.0001" width="20" height="26" rx="3.94629" fill="#D7DBE5"/>
<rect y="11.0001" width="20" height="26" rx="3.94629" fill="url(#paint0_radial_205_16558)" fill-opacity="0.24"/>
<path d="M25.8141 14.8143C28.0681 17.0683 29.1951 18.1953 29.2713 19.1628C29.3374 20.0024 28.9975 20.8229 28.3571 21.3698C27.6191 22.0001 26.0253 22.0001 22.8377 22.0001H17.3141C15.1039 22.0001 13.9989 22.0001 13.1547 21.57C12.4122 21.1917 11.8085 20.588 11.4301 19.8454C11 19.0013 11 17.8962 11 15.6861V10.1625C11 6.97482 11 5.381 11.6303 4.64297C12.1773 4.0026 12.9977 3.66276 13.8373 3.72883C14.8049 3.80498 15.9319 4.93198 18.1859 7.18598L25.8141 14.8143Z" fill="#8F9BB7"/>
<path d="M25.8141 14.8143C28.0681 17.0683 29.1951 18.1953 29.2713 19.1628C29.3374 20.0024 28.9975 20.8229 28.3571 21.3698C27.6191 22.0001 26.0253 22.0001 22.8377 22.0001H17.3141C15.1039 22.0001 13.9989 22.0001 13.1547 21.57C12.4122 21.1917 11.8085 20.588 11.4301 19.8454C11 19.0013 11 17.8962 11 15.6861V10.1625C11 6.97482 11 5.381 11.6303 4.64297C12.1773 4.0026 12.9977 3.66276 13.8373 3.72883C14.8049 3.80498 15.9319 4.93198 18.1859 7.18598L25.8141 14.8143Z" fill="url(#paint1_radial_205_16558)" fill-opacity="0.24"/>
<path fill-rule="evenodd" clip-rule="evenodd" d="M11.0005 11.0001H13.6864C15.8966 11.0001 17.0016 11.0001 17.8458 11.4302C18.5883 11.8086 19.192 12.4123 19.5704 13.1548C20.0005 13.999 20.0005 15.1041 20.0005 17.3142V22.0001H17.3146C15.1044 22.0001 13.9994 22.0001 13.1552 21.57C12.4127 21.1917 11.809 20.588 11.4306 19.8454C11.0005 19.0013 11.0005 17.8962 11.0005 15.6861V11.0001Z" fill="#525F7A"/>
<path fill-rule="evenodd" clip-rule="evenodd" d="M11.0005 11.0001H13.6864C15.8966 11.0001 17.0016 11.0001 17.8458 11.4302C18.5883 11.8086 19.192 12.4123 19.5704 13.1548C20.0005 13.999 20.0005 15.1041 20.0005 17.3142V22.0001H17.3146C15.1044 22.0001 13.9994 22.0001 13.1552 21.57C12.4127 21.1917 11.809 20.588 11.4306 19.8454C11.0005 19.0013 11.0005 17.8962 11.0005 15.6861V11.0001Z" fill="url(#paint2_radial_205_16558)" fill-opacity="0.24"/>
<defs>
<radialGradient id="paint0_radial_205_16558" cx="0" cy="0" r="1" gradientUnits="userSpaceOnUse" gradientTransform="translate(9.10179 10.2825) rotate(88.0745) scale(26.7327 17.8351)">
<stop stop-color="white"/>
<stop offset="1" stop-color="white" stop-opacity="0"/>
</radialGradient>
<radialGradient id="paint1_radial_205_16558" cx="0" cy="0" r="1" gradientUnits="userSpaceOnUse" gradientTransform="translate(22.988 22.6073) rotate(-92.5025) scale(22.6288 19.611)">
<stop stop-color="white"/>
<stop offset="1" stop-color="white" stop-opacity="0"/>
</radialGradient>
<radialGradient id="paint2_radial_205_16558" cx="0" cy="0" r="1" gradientUnits="userSpaceOnUse" gradientTransform="translate(15.0963 10.6965) rotate(87.9521) scale(11.3108 8.02522)">
<stop stop-color="white"/>
<stop offset="1" stop-color="white" stop-opacity="0"/>
</radialGradient>
</defs>
</svg>
