<svg width="44" height="36" viewBox="0 0 44 36" fill="none" xmlns="http://www.w3.org/2000/svg">
<path fill-rule="evenodd" clip-rule="evenodd" d="M22.0012 0.399902C16.0105 0.399902 10.5687 0.897331 6.63281 3.44005C2.51192 6.10229 0.400146 10.7321 0.400146 17.9999C0.400146 22.0929 0.906326 26.3347 2.27322 29.6153C3.64803 32.9148 6.08414 35.5999 10.0001 35.5999C11.8008 35.5999 13.1613 35.1396 14.2788 34.3925C15.2216 33.7621 15.9507 32.9428 16.539 32.2817C16.6041 32.2085 16.6674 32.1373 16.7292 32.0685C17.3911 31.3309 17.9551 30.7544 18.7054 30.3303C19.4286 29.9215 20.4292 29.5999 22.0001 29.5999C23.5711 29.5999 24.5717 29.9215 25.2949 30.3303C26.0452 30.7544 26.6092 31.3309 27.2711 32.0685C27.3329 32.1373 27.3962 32.2085 27.4613 32.2817C28.0496 32.9428 28.7787 33.7621 29.7215 34.3925C30.839 35.1396 32.1995 35.5999 34.0001 35.5999C37.9162 35.5999 40.3523 32.9148 41.7271 29.6153C43.094 26.3347 43.6001 22.0929 43.6001 17.9999C43.6001 10.615 41.4954 5.97195 37.3598 3.33789C33.4211 0.829207 27.973 0.399902 22.0012 0.399902ZM14.0001 10.3999C14.8838 10.3999 15.6001 11.1162 15.6001 11.9999V14.3999H18.0001C18.8838 14.3999 19.6001 15.1162 19.6001 15.9999C19.6001 16.8836 18.8838 17.5999 18.0001 17.5999H15.6001V19.9999C15.6001 20.8836 14.8838 21.5999 14.0001 21.5999C13.1165 21.5999 12.4001 20.8836 12.4001 19.9999V17.5999H10.0001C9.11649 17.5999 8.40015 16.8836 8.40015 15.9999C8.40015 15.1162 9.11649 14.3999 10.0001 14.3999H12.4001V11.9999C12.4001 11.1162 13.1165 10.3999 14.0001 10.3999ZM28.0001 15.9999C29.1047 15.9999 30.0001 15.1045 30.0001 13.9999C30.0001 12.8953 29.1047 11.9999 28.0001 11.9999C26.8956 11.9999 26.0001 12.8953 26.0001 13.9999C26.0001 15.1045 26.8956 15.9999 28.0001 15.9999ZM34.0001 17.9999C34.0001 19.1045 33.1047 19.9999 32.0001 19.9999C30.8956 19.9999 30.0001 19.1045 30.0001 17.9999C30.0001 16.8953 30.8956 15.9999 32.0001 15.9999C33.1047 15.9999 34.0001 16.8953 34.0001 17.9999Z" fill="#9F53FF"/>
</svg>
