<svg width="38" height="40" viewBox="0 0 38 40" fill="none" xmlns="http://www.w3.org/2000/svg">
<path d="M8.87833 1.75461C11.4895 0.497715 14.9775 0.399414 19 0.399414C23.0224 0.399414 26.5104 0.497715 29.1216 1.75461C31.7338 3.01202 33.2498 5.28077 33.9959 8.76604C36.1034 9.57031 37.5999 11.609 37.5999 13.9994C37.5999 16.249 36.2747 18.1862 34.3632 19.0773C33.278 26.0035 28.4625 31.8982 20.5999 32.6168V35.7353C21.669 35.854 22.8312 36.0728 23.782 36.6035C23.7887 36.6074 23.7844 36.6049 23.7844 36.6049C24.5545 37.0381 24.8277 38.0137 24.3945 38.7838C23.9651 39.5471 23.0031 39.8222 22.2362 39.4054L22.2309 39.4027C22.129 39.3526 21.0698 38.8494 18.9999 38.8494C16.9301 38.8494 15.8709 39.3526 15.769 39.4027L15.7637 39.4054C14.9968 39.8222 14.0348 39.5471 13.6054 38.7838C13.1722 38.0137 13.4454 37.0381 14.2155 36.6049L14.2179 36.6035C15.1892 36.0611 16.3068 35.8567 17.3999 35.7353V32.6225C13.5682 32.285 10.4095 30.7064 8.06584 28.3083C5.66108 25.8477 4.17528 22.5896 3.63325 19.0757C1.72368 18.1839 0.399948 16.2476 0.399948 13.9994C0.399948 11.609 1.89652 9.5703 4.00398 8.76604C4.75015 5.28076 6.2661 3.01202 8.87833 1.75461Z" fill="#0AB988"/>
</svg>
