<svg width="59" height="60" viewBox="0 0 59 60" fill="none" xmlns="http://www.w3.org/2000/svg">
<path d="M58.521 30.675C58.521 28.6486 58.3553 26.6297 58.0088 24.6335H30.001V36.0686H46.0388C45.3759 39.7598 43.2365 43.0216 40.1103 45.0932V52.5208H49.6848C55.2894 47.3607 58.521 39.7146 58.521 30.675Z" fill="#4285F4"/>
<path d="M29.9913 59.7002C38.0065 59.7002 44.7561 57.0712 49.6751 52.5287L40.1006 45.1012C37.434 46.9091 34.0064 47.9411 29.9913 47.9411C22.2474 47.9411 15.671 42.7207 13.3207 35.6849H3.45996V43.3384C8.49956 53.3724 18.7671 59.7002 29.9913 59.7002Z" fill="#34A853"/>
<path d="M13.3264 35.6849C12.0834 32.0013 12.0834 28.0012 13.3264 24.3176V16.664H3.46563C-0.752867 25.0558 -0.752867 34.9467 3.46563 43.3385L13.3264 35.6849Z" fill="#FBBC04"/>
<path d="M29.9913 12.061C34.2249 11.9932 38.3153 13.5902 41.3813 16.513L49.8635 8.03834C44.4849 2.99121 37.3661 0.219052 29.9913 0.301915C18.7671 0.301915 8.49956 6.6372 3.45996 16.6637L13.3207 24.3172C15.671 17.2814 22.2474 12.061 29.9913 12.061Z" fill="#EA4335"/>
</svg>
