<svg width="180" height="60" viewBox="0 0 180 60" fill="none" xmlns="http://www.w3.org/2000/svg">
<g clip-path="url(#clip0_1037_21537)">
<path d="M165.202 7.29297e-05H14.302C13.752 7.29297e-05 13.2085 7.29298e-05 12.6599 0.00307293C12.2007 0.00607293 11.7451 0.0147879 11.2815 0.0221229C10.2743 0.0339756 9.26941 0.122587 8.27565 0.287188C7.28329 0.455372 6.32201 0.772446 5.42433 1.22769C4.52775 1.68678 3.70852 2.28332 2.99636 2.99568C2.28045 3.70603 1.68369 4.5271 1.22903 5.42731C0.7731 6.32574 0.456961 7.28848 0.291525 8.28229C0.124516 9.27485 0.0346476 10.2789 0.022725 11.2853C0.008805 11.7452 0.007335 12.2066 0 12.6666V47.338C0.007335 47.8037 0.008805 48.2549 0.022725 48.7208C0.0346512 49.7272 0.12452 50.7312 0.291525 51.7237C0.456504 52.7181 0.772662 53.6814 1.22903 54.5801C1.68349 55.4774 2.28033 56.2952 2.99636 57.0016C3.70582 57.7171 4.52558 58.314 5.42433 58.7696C6.322 59.2261 7.28318 59.545 8.27565 59.7158C9.26958 59.8791 10.2743 59.9677 11.2815 59.981C11.7451 59.9912 12.2007 59.9971 12.6599 59.9971C13.2085 60.0001 13.752 60.0001 14.302 60.0001H165.202C165.741 60.0001 166.289 60.0001 166.828 59.9971C167.285 59.9971 167.754 59.9912 168.211 59.981C169.216 59.9685 170.219 59.8798 171.211 59.7158C172.207 59.5438 173.171 59.225 174.073 58.7696C174.971 58.3138 175.79 57.7168 176.499 57.0016C177.213 56.2924 177.811 55.4753 178.272 54.5801C178.724 53.6807 179.038 52.7175 179.2 51.7237C179.367 50.731 179.46 49.7273 179.479 48.7208C179.484 48.2549 179.484 47.8037 179.484 47.338C179.496 46.793 179.496 46.2511 179.496 45.6973V14.3043C179.496 13.755 179.496 13.21 179.484 12.6666C179.484 12.2066 179.484 11.7452 179.479 11.2852C179.46 10.2787 179.367 9.27493 179.2 8.28223C179.037 7.289 178.724 6.32633 178.272 5.42725C177.346 3.62287 175.877 2.15411 174.073 1.22755C173.171 0.773424 172.207 0.456434 171.211 0.287053C170.219 0.121727 169.216 0.0330846 168.211 0.0219129C167.754 0.0145929 167.285 0.00580293 166.828 0.00287793C166.289 -0.00012207 165.741 -0.00012207 165.202 -0.00012207V7.29297e-05Z" fill="#0E1420"/>
<path d="M37.4951 29.834C37.5118 28.5321 37.8577 27.2556 38.5004 26.1232C39.1431 24.9908 40.0617 24.0394 41.1709 23.3575C40.4663 22.3511 39.5367 21.523 38.456 20.9387C37.3753 20.3545 36.1733 20.0303 34.9453 19.9918C32.326 19.7169 29.7866 21.5592 28.4518 21.5592C27.0912 21.5592 25.0362 20.0191 22.8231 20.0647C21.3917 20.1109 19.9967 20.5272 18.7739 21.2729C17.5512 22.0186 16.5425 23.0683 15.8461 24.3197C12.8294 29.5427 15.0796 37.2188 17.9694 41.4407C19.4152 43.5081 21.1049 45.8173 23.3159 45.7354C25.4795 45.6457 26.2876 44.3558 28.8992 44.3558C31.4866 44.3558 32.2447 45.7354 34.5006 45.6834C36.8223 45.6457 38.285 43.6069 39.6801 41.5199C40.7189 40.0469 41.5183 38.4188 42.0486 36.6961C40.6998 36.1256 39.5488 35.1707 38.739 33.9504C37.9293 32.7302 37.4966 31.2985 37.4951 29.834Z" fill="white"/>
<path d="M33.2341 17.2152C34.5 15.6956 35.1237 13.7424 34.9726 11.7704C33.0387 11.9735 31.2523 12.8978 29.9693 14.3591C29.342 15.073 28.8616 15.9035 28.5555 16.8032C28.2494 17.7029 28.1236 18.654 28.1853 19.6024C29.1526 19.6123 30.1096 19.4027 30.9841 18.9892C31.8587 18.5757 32.628 17.9691 33.2341 17.2152Z" fill="white"/>
<path d="M63.4527 40.7095H56.3526L54.6475 45.7442H51.6402L58.3653 27.1172H61.4898L68.2149 45.7442H65.1563L63.4527 40.7095ZM57.0879 38.3863H62.7159L59.9415 30.2154H59.8638L57.0879 38.3863Z" fill="white"/>
<path d="M82.7388 38.9546C82.7388 43.1748 80.48 45.8862 77.0713 45.8862C76.2078 45.9314 75.3491 45.7325 74.5934 45.3123C73.8377 44.8921 73.2156 44.2676 72.7984 43.5102H72.7339V50.2368H69.9463V32.1636H72.6445V34.4224H72.6958C73.1322 33.6687 73.7648 33.0474 74.5263 32.6246C75.2877 32.2018 76.1495 31.9934 77.02 32.0215C80.4668 32.0215 82.7388 34.7461 82.7388 38.9546ZM79.8736 38.9546C79.8736 36.2051 78.4527 34.3975 76.2847 34.3975C74.1548 34.3975 72.7222 36.2432 72.7222 38.9546C72.7222 41.6909 74.1548 43.5235 76.2847 43.5235C78.4527 43.5235 79.8735 41.729 79.8735 38.9546H79.8736Z" fill="white"/>
<path d="M97.6868 38.9546C97.6868 43.1748 95.4273 45.8862 92.0186 45.8862C91.1551 45.9314 90.2963 45.7325 89.5406 45.3123C88.785 44.8921 88.1629 44.2676 87.7456 43.5102H87.6811V50.2368H84.8935V32.1636H87.5918V34.4224H87.643C88.0795 33.6687 88.7121 33.0474 89.4735 32.6246C90.235 32.2018 91.0968 31.9934 91.9672 32.0215C95.4141 32.0215 97.6868 34.7461 97.6868 38.9546ZM94.8208 38.9546C94.8208 36.2051 93.3999 34.3975 91.2319 34.3975C89.1021 34.3975 87.6694 36.2432 87.6694 38.9546C87.6694 41.6909 89.1021 43.5235 91.2319 43.5235C93.3999 43.5235 94.8208 41.729 94.8208 38.9546Z" fill="white"/>
<path d="M107.564 40.5542C107.771 42.4014 109.565 43.6142 112.017 43.6142C114.367 43.6142 116.057 42.4013 116.057 40.7358C116.057 39.29 115.038 38.4243 112.624 37.831L110.21 37.2495C106.789 36.4233 105.201 34.8237 105.201 32.228C105.201 29.0141 108.002 26.8066 111.978 26.8066C115.915 26.8066 118.614 29.0141 118.704 32.228H115.89C115.722 30.3691 114.185 29.247 111.94 29.247C109.694 29.247 108.157 30.3823 108.157 32.0346C108.157 33.3515 109.139 34.1264 111.54 34.7196L113.592 35.2235C117.414 36.1273 119 37.6625 119 40.3871C119 43.872 116.226 46.0546 111.811 46.0546C107.68 46.0546 104.891 43.9232 104.711 40.5541L107.564 40.5542Z" fill="white"/>
<path d="M125.019 28.9497V32.1636H127.602V34.3711H125.019V41.8579C125.019 43.021 125.536 43.563 126.672 43.563C126.978 43.5576 127.284 43.5361 127.589 43.4985V45.6928C127.078 45.7882 126.559 45.8314 126.04 45.8217C123.291 45.8217 122.219 44.789 122.219 42.1552V34.3711H120.244V32.1636H122.218V28.9497H125.019Z" fill="white"/>
<path d="M129.096 38.9546C129.096 34.6816 131.613 31.9966 135.537 31.9966C139.474 31.9966 141.979 34.6816 141.979 38.9546C141.979 43.2393 139.488 45.9126 135.537 45.9126C131.588 45.9126 129.096 43.2392 129.096 38.9546ZM139.139 38.9546C139.139 36.0234 137.796 34.2935 135.537 34.2935C133.278 34.2935 131.935 36.0366 131.935 38.9546C131.935 41.8975 133.278 43.6143 135.537 43.6143C137.796 43.6143 139.139 41.8975 139.139 38.9546H139.139Z" fill="white"/>
<path d="M144.278 32.1636H146.936V34.4751H147.001C147.181 33.7531 147.604 33.1151 148.198 32.6683C148.793 32.2215 149.524 31.9931 150.267 32.0215C150.589 32.0203 150.909 32.0552 151.222 32.1255V34.7329C150.817 34.609 150.394 34.5521 149.97 34.5644C149.565 34.548 149.161 34.6194 148.787 34.7737C148.412 34.9281 148.075 35.1617 147.799 35.4585C147.523 35.7554 147.314 36.1084 147.188 36.4934C147.061 36.8784 147.019 37.2862 147.065 37.6889V45.7441H144.278L144.278 32.1636Z" fill="white"/>
<path d="M164.075 41.7554C163.7 44.2207 161.299 45.9126 158.227 45.9126C154.277 45.9126 151.824 43.2656 151.824 39.019C151.824 34.7593 154.29 31.9966 158.11 31.9966C161.867 31.9966 164.23 34.5776 164.23 38.6953V39.6504H154.638V39.8188C154.594 40.3186 154.657 40.8221 154.822 41.2959C154.987 41.7697 155.251 42.2028 155.597 42.5667C155.943 42.9305 156.362 43.2166 156.826 43.4061C157.291 43.5955 157.79 43.684 158.292 43.6655C158.951 43.7272 159.612 43.5747 160.177 43.2305C160.742 42.8864 161.181 42.369 161.428 41.7554L164.075 41.7554ZM154.652 37.7021H161.441C161.466 37.2528 161.398 36.803 161.241 36.3812C161.084 35.9594 160.842 35.5746 160.529 35.251C160.216 34.9273 159.84 34.6718 159.423 34.5005C159.007 34.3292 158.56 34.2457 158.11 34.2554C157.656 34.2527 157.206 34.3399 156.786 34.512C156.366 34.6841 155.984 34.9377 155.663 35.2582C155.341 35.5786 155.086 35.9596 154.913 36.379C154.739 36.7985 154.65 37.2482 154.652 37.7022V37.7021Z" fill="white"/>
<path d="M55.1075 16.8801H56.3042C56.5103 16.9058 56.7194 16.8885 56.9184 16.8293C57.1174 16.7702 57.3019 16.6704 57.4605 16.5364C57.619 16.4023 57.7481 16.2369 57.8395 16.0505C57.9309 15.8641 57.9828 15.6608 57.9917 15.4534C57.9917 14.628 57.3706 14.0948 56.3174 14.0948C56.1063 14.0653 55.8915 14.0784 55.6856 14.1333C55.4797 14.1882 55.2868 14.2838 55.1185 14.4145C54.9501 14.5451 54.8096 14.7082 54.7053 14.8941C54.6011 15.0799 54.5351 15.2848 54.5113 15.4966H53.1973C53.2199 15.1122 53.3214 14.7365 53.4955 14.393C53.6696 14.0494 53.9125 13.7454 54.2092 13.4999C54.5059 13.2543 54.8499 13.0725 55.2199 12.9656C55.5899 12.8588 55.978 12.8293 56.3599 12.8789C58.1221 12.8789 59.3629 13.8655 59.3629 15.2857C59.367 15.7614 59.2078 16.2242 58.9119 16.5968C58.616 16.9693 58.2012 17.2291 57.7369 17.3328V17.4383C58.2874 17.4627 58.8058 17.704 59.1788 18.1096C59.5519 18.5152 59.7492 19.0519 59.7276 19.6026C59.6869 19.9984 59.5675 20.3821 59.3765 20.7312C59.1856 21.0803 58.9269 21.3878 58.6155 21.6357C58.3042 21.8835 57.9465 22.0667 57.5635 22.1745C57.1804 22.2823 56.7797 22.3125 56.3848 22.2635C55.9891 22.3174 55.5866 22.2911 55.2012 22.1862C54.8159 22.0812 54.4556 21.8998 54.1419 21.6526C53.8282 21.4055 53.5674 21.0977 53.3752 20.7476C53.183 20.3976 53.0632 20.0124 53.023 19.615H54.3575C54.438 20.4712 55.2247 21.0235 56.3848 21.0235C57.545 21.0235 58.3023 20.4032 58.3023 19.5287C58.3023 18.6417 57.5889 18.0953 56.3423 18.0953H55.1075V16.8801Z" fill="#8C93A0"/>
<path d="M61.2437 20.1365C61.2437 18.9206 62.1504 18.2197 63.7559 18.1201L65.5855 18.0146V17.4316C65.5855 16.7183 65.1153 16.3154 64.2027 16.3154C63.4585 16.3154 62.9444 16.5886 62.795 17.0662H61.5044C61.6407 15.906 62.7334 15.1619 64.2657 15.1619C65.959 15.1619 66.9141 16.0049 66.9141 17.4316V22.0466H65.6294V21.0974H65.524C65.3099 21.4379 65.0093 21.7155 64.6528 21.9018C64.2964 22.0881 63.8969 22.1765 63.4952 22.1579C63.2116 22.1874 62.925 22.1572 62.6539 22.0691C62.3827 21.9811 62.1331 21.8372 61.9209 21.6467C61.7088 21.4563 61.5389 21.2235 61.4223 20.9633C61.3056 20.7032 61.2448 20.4215 61.2437 20.1365ZM65.5855 19.5593V18.9946L63.936 19.1001C63.0058 19.1623 62.5839 19.4787 62.5839 20.0742C62.5839 20.6821 63.1113 21.0359 63.8364 21.0359C64.0489 21.0574 64.2635 21.0359 64.4676 20.9728C64.6716 20.9097 64.8608 20.8061 65.024 20.6684C65.1872 20.5306 65.321 20.3614 65.4174 20.1709C65.5139 19.9804 65.571 19.7724 65.5855 19.5593Z" fill="#8C93A0"/>
<path d="M70.4517 16.4143V22.0466H69.1187V15.2922H73.566V16.4142L70.4517 16.4143Z" fill="#8C93A0"/>
<path d="M81.6446 18.6665C81.6446 20.8125 80.5591 22.158 78.854 22.158C78.4355 22.1865 78.0175 22.095 77.6492 21.894C77.281 21.693 76.9778 21.3909 76.7754 21.0234H76.67V24.2922H75.3369V15.2922H76.6202V16.4085H76.7198C76.9258 16.0282 77.2329 15.7122 77.6072 15.4954C77.9815 15.2786 78.4084 15.1696 78.8409 15.1802C80.5591 15.1802 81.6446 16.5198 81.6446 18.6665ZM80.2735 18.6665C80.2735 17.2397 79.5982 16.3777 78.4688 16.3777C77.3468 16.3777 76.6451 17.258 76.6451 18.6724C76.6451 20.0801 77.3467 20.9612 78.4629 20.9612C79.5982 20.9612 80.2735 20.0991 80.2735 18.6665Z" fill="#8C93A0"/>
<path d="M83.42 24.4658V23.3181C83.5642 23.3365 83.7096 23.3448 83.855 23.343C84.139 23.3641 84.4207 23.2795 84.6462 23.1055C84.8717 22.9315 85.0249 22.6804 85.0766 22.4004L85.1762 22.0715L82.7314 15.2922H84.1831L85.8765 20.6572H85.982L87.6695 15.2922H89.083L86.565 22.3257C85.9879 23.9692 85.3492 24.4966 83.9722 24.4966C83.8609 24.4966 83.5445 24.4841 83.42 24.4658Z" fill="#8C93A0"/>
<path d="M90.1216 20.1299H91.4488C91.5791 20.7254 92.1373 21.0359 92.918 21.0359C93.8057 21.0359 94.3506 20.6448 94.3506 20.0369C94.3506 19.3858 93.8614 19.0753 92.918 19.0753H91.9073V18.0396H92.9004C93.7061 18.0396 94.1162 17.7298 94.1162 17.1651C94.1162 16.6693 93.7193 16.2906 92.9004 16.2906C92.1548 16.2906 91.6099 16.607 91.5234 17.1402H90.2388C90.3348 16.5275 90.6675 15.977 91.1653 15.6071C91.663 15.2371 92.2861 15.0773 92.9004 15.1619C94.5059 15.1619 95.4244 15.8878 95.4244 17.0289C95.4318 17.3467 95.33 17.6574 95.1359 17.9091C94.9418 18.1608 94.6672 18.3382 94.3579 18.4117V18.5172C94.7261 18.5647 95.064 18.7457 95.3076 19.0258C95.5512 19.3059 95.6834 19.6658 95.6792 20.0369C95.6792 21.3209 94.5865 22.1705 92.918 22.1705C91.4429 22.1704 90.2447 21.4944 90.1216 20.1299Z" fill="#8C93A0"/>
<path d="M97.5989 22.0466V15.2922H98.9202V19.938H99.0257L102.138 15.2923H103.46V22.0466H102.138V17.376H102.039L98.9202 22.0467L97.5989 22.0466Z" fill="#8C93A0"/>
<path d="M110.739 16.4143H108.612V22.0466H107.277V16.4143H105.15V15.2923H110.739V16.4143Z" fill="#8C93A0"/>
<path d="M117.919 20.2229C117.738 20.8402 117.345 21.374 116.81 21.7312C116.274 22.0884 115.631 22.2462 114.991 22.177C114.546 22.1887 114.104 22.1035 113.695 21.9272C113.286 21.7509 112.921 21.4878 112.624 21.1561C112.327 20.8244 112.106 20.432 111.976 20.0063C111.846 19.5806 111.81 19.1316 111.871 18.6907C111.812 18.2483 111.848 17.7984 111.978 17.3714C112.108 16.9444 112.328 16.5503 112.623 16.2157C112.918 15.8811 113.282 15.6138 113.689 15.432C114.097 15.2502 114.539 15.1581 114.985 15.1619C116.865 15.1619 118 16.4459 118 18.5669V19.032H113.23V19.1067C113.209 19.3546 113.24 19.6042 113.321 19.8395C113.402 20.0747 113.532 20.2904 113.701 20.4726C113.871 20.6548 114.076 20.7996 114.305 20.8976C114.534 20.9956 114.78 21.0447 115.029 21.0417C115.348 21.0798 115.671 21.0223 115.956 20.8765C116.242 20.7307 116.478 20.5032 116.635 20.2229L117.919 20.2229ZM113.23 18.0461H116.64C116.657 17.8196 116.626 17.592 116.55 17.378C116.474 17.164 116.354 16.9683 116.197 16.8035C116.041 16.6388 115.852 16.5085 115.642 16.4212C115.432 16.3339 115.206 16.2913 114.979 16.2964C114.749 16.2933 114.52 16.3364 114.306 16.4232C114.092 16.51 113.898 16.6388 113.735 16.8019C113.572 16.9651 113.444 17.1592 113.357 17.3729C113.27 17.5866 113.227 17.8155 113.23 18.0461H113.23Z" fill="#8C93A0"/>
<path d="M123.571 15.2922H126.616C127.937 15.2922 128.712 15.9617 128.712 17.0097C128.714 17.3423 128.602 17.6655 128.394 17.9252C128.187 18.1849 127.896 18.3654 127.571 18.4365V18.542C127.966 18.5669 128.335 18.7424 128.604 19.0321C128.873 19.3219 129.02 19.7039 129.015 20.0991C129.015 21.2776 128.129 22.0466 126.647 22.0466H123.571V15.2922ZM124.892 16.3154V18.0644H126.213C127.019 18.0644 127.404 17.7546 127.404 17.1833C127.404 16.6567 127.069 16.3154 126.361 16.3154L124.892 16.3154ZM124.892 19.0444V21.0235H126.473C127.261 21.0235 127.682 20.6756 127.682 20.0369C127.682 19.3609 127.205 19.0445 126.305 19.0445L124.892 19.0444Z" fill="#8C93A0"/>
</g>
<defs>
<clipPath id="clip0_1037_21537">
<rect width="179.496" height="60" fill="white"/>
</clipPath>
</defs>
</svg>
