<svg width="60" height="60" viewBox="0 0 60 60" fill="none" xmlns="http://www.w3.org/2000/svg">
<path d="M6 13.2C6 10.8804 7.8804 9 10.2 9H33.3C35.6196 9 37.5 10.8804 37.5 13.2V34.5327C37.5 36.3002 36.3934 37.8785 34.7318 38.4811L10.2238 47.3683C8.16992 48.1131 6 46.5918 6 44.407V13.2Z" fill="url(#paint0_linear_147_17941)"/>
<path d="M48.4187 47.9776C47.4929 49.0886 47.0299 49.6441 46.4625 50.0434C45.9597 50.3973 45.3987 50.66 44.805 50.8198C44.1349 51 43.4118 51 41.9656 51H23.64C21.8758 51 20.9937 51 20.3199 50.6567C19.7272 50.3547 19.2453 49.8728 18.9433 49.2801C18.6 48.6063 18.6 47.7242 18.6 45.96L18.6 30.84C18.6 29.0759 18.6 28.1938 18.9433 27.52C19.2453 26.9273 19.7272 26.4454 20.3199 26.1434C20.9937 25.8 21.8758 25.8 23.64 25.8L41.9656 25.8001C43.4118 25.8001 44.1349 25.8001 44.805 25.9803C45.3987 26.1401 45.9597 26.4028 46.4625 26.7567C47.0299 27.156 47.4929 27.7115 48.4187 28.8225L51.9187 33.0225C53.5129 34.9355 54.31 35.8921 54.6146 36.9598C54.8831 37.9012 54.8831 38.8989 54.6146 39.8403C54.31 40.908 53.5129 41.8646 51.9187 43.7776L48.4187 47.9776Z" fill="url(#paint1_linear_147_17941)"/>
<path d="M37.5 25.8V34.5327C37.5 36.3002 36.3934 37.8786 34.7318 38.4811L18.6 44.331V30.84C18.6 29.0759 18.6 28.1938 18.9433 27.52C19.2453 26.9273 19.7272 26.4454 20.3199 26.1434C20.9937 25.8 21.8758 25.8 23.64 25.8H37.5Z" fill="url(#paint2_linear_147_17941)"/>
<defs>
<linearGradient id="paint0_linear_147_17941" x1="21.75" y1="9" x2="21.75" y2="47.5597" gradientUnits="userSpaceOnUse">
<stop stop-color="#05C3FF"/>
<stop offset="1" stop-color="#0075FF"/>
</linearGradient>
<linearGradient id="paint1_linear_147_17941" x1="36.708" y1="25.8" x2="36.708" y2="51" gradientUnits="userSpaceOnUse">
<stop stop-color="#48E4FF"/>
<stop offset="1" stop-color="#00A6FF"/>
</linearGradient>
<linearGradient id="paint2_linear_147_17941" x1="28.05" y1="25.8" x2="28.05" y2="44.331" gradientUnits="userSpaceOnUse">
<stop stop-color="#008BFF"/>
<stop offset="1" stop-color="#0054FF"/>
</linearGradient>
</defs>
</svg>
