<svg width="83" height="54" viewBox="0 0 83 54" fill="none" xmlns="http://www.w3.org/2000/svg">
<path d="M52.475 6.2218H30.1492V47.5398H52.475V6.2218Z" fill="#FF5A00"/>
<path d="M31.6403 26.8809C31.6403 18.4863 35.4714 11.0358 41.3501 6.22188C37.0236 2.71776 31.566 0.599976 25.613 0.599976C11.5107 0.599976 0.100098 12.3541 0.100098 26.8809C0.100098 41.4077 11.5107 53.1618 25.613 53.1618C31.566 53.1618 37.0236 51.044 41.3501 47.5399C35.4631 42.794 31.6403 35.2755 31.6403 26.8809Z" fill="#EB001B"/>
<path d="M82.6001 26.8809C82.6001 41.4077 71.1895 53.1618 57.0872 53.1618C51.1342 53.1618 45.6766 51.044 41.3501 47.5399C47.3031 42.7175 51.0599 35.2755 51.0599 26.8809C51.0599 18.4863 47.2288 11.0358 41.3501 6.22188C45.6683 2.71776 51.1259 0.599976 57.0789 0.599976C71.1895 0.599976 82.6001 12.4306 82.6001 26.8809Z" fill="#F79E1B"/>
</svg>
