<svg width="91" height="27" viewBox="0 0 91 27" fill="none" xmlns="http://www.w3.org/2000/svg">
<path fill-rule="evenodd" clip-rule="evenodd" d="M8.58973 0.414151C9.39888 0.409109 11.8036 0.1835 12.8222 3.76453C13.5084 6.17675 14.6014 10.1281 16.1012 15.6185H16.712C18.3204 9.83011 19.4253 5.87878 20.0267 3.76453C21.0559 0.146197 23.629 0.414222 24.6582 0.414222L32.5988 0.414232V26.1445H24.5055V10.9812H23.9628L19.4512 26.1445H13.362L8.85038 10.97H8.30767V26.1445H0.214355V0.414232L8.58973 0.414151ZM44.2207 0.414232V15.5888H44.8663L50.3543 3.11086C51.4196 0.627715 53.6901 0.414232 53.6901 0.414232H61.522V26.1446H53.2597V10.97H52.614L47.2337 23.4479C46.1684 25.9199 43.7902 26.1446 43.7902 26.1446H35.9583V0.414232H44.2207ZM90.0803 12.6415C88.9278 16.0435 85.3085 18.4799 81.3014 18.4799H72.6367V26.1446H64.7797V12.6415H90.0803Z" fill="#0F754E"/>
<path fill-rule="evenodd" clip-rule="evenodd" d="M81.6764 0.413483H64.3638C64.7758 6.14193 69.5117 11.0459 74.4143 11.0459H90.6224C91.5577 6.28484 88.3378 0.413483 81.6764 0.413483Z" fill="url(#paint0_linear_157_14247)"/>
<defs>
<linearGradient id="paint0_linear_157_14247" x1="90.7813" y1="7.1017" x2="64.3638" y2="7.1017" gradientUnits="userSpaceOnUse">
<stop stop-color="#1F5CD7"/>
<stop offset="1" stop-color="#02AEFF"/>
</linearGradient>
</defs>
</svg>
