<svg width="32" height="44" viewBox="0 0 32 44" fill="none" xmlns="http://www.w3.org/2000/svg">
<path fill-rule="evenodd" clip-rule="evenodd" d="M16.0006 0.399902C10.0222 0.399902 5.84877 1.13244 3.33193 3.8237C2.06591 5.17746 1.34496 6.89405 0.93296 8.89616C0.524275 10.8822 0.39991 13.2494 0.39991 15.9999V16.0057C0.400899 17.1712 0.401256 17.5938 0.401285 18.0163C0.401302 18.2566 0.401212 18.4969 0.401072 18.8739C0.400685 19.9147 0.39991 21.9976 0.39991 27.9999C0.39991 31.0203 0.523611 33.5264 0.931213 35.5638C1.34221 37.6181 2.06727 39.3296 3.36924 40.6313C4.6712 41.9331 6.38274 42.658 8.43704 43.0688C10.4744 43.4763 12.9804 43.5999 16.0006 43.5999C19.0208 43.5999 21.5268 43.4763 23.564 43.0688C25.6182 42.658 27.3296 41.9331 28.6314 40.6312C29.9332 39.3294 30.658 37.6179 31.0689 35.5637C31.4763 33.5264 31.5999 31.0203 31.5999 27.9999V15.9999C31.5999 12.9795 31.4763 10.4734 31.0689 8.43612C30.658 6.38186 29.9332 4.67039 28.6314 3.36856C27.3296 2.06671 25.6182 1.34184 23.564 0.930976C21.5268 0.523512 19.0208 0.399902 16.0006 0.399902ZM17.9999 33.9999C17.9999 32.8952 17.1046 31.9999 15.9999 31.9999C14.8952 31.9999 13.9999 32.8952 13.9999 33.9999C13.9999 35.1046 14.8952 35.9999 15.9999 35.9999C17.1046 35.9999 17.9999 35.1046 17.9999 33.9999ZM10.3999 8.3998C10.3999 7.51615 11.1163 6.7998 11.9999 6.7998H19.9999C20.8836 6.7998 21.5999 7.51615 21.5999 8.3998C21.5999 9.28346 20.8836 9.9998 19.9999 9.9998H11.9999C11.1163 9.9998 10.3999 9.28346 10.3999 8.3998Z" fill="#4285F4"/>
</svg>
