<svg width="60" height="60" viewBox="0 0 60 60" fill="none" xmlns="http://www.w3.org/2000/svg">
<path d="M50.2875 49.8816C49.3161 51.0279 48.8304 51.601 48.235 52.013C47.7074 52.3781 47.1188 52.6492 46.4958 52.814C45.7928 53 45.034 53 43.5166 53H24.2883C22.4372 53 21.5117 53 20.8047 52.6458C20.1827 52.3342 19.6771 51.837 19.3602 51.2255C19 50.5303 19 49.6202 19 47.8L19 32.2C19 30.3798 19 29.4697 19.3602 28.7745C19.6771 28.163 20.1827 27.6658 20.8047 27.3542C21.5117 27 22.4372 27 24.2883 27L43.5166 27C45.034 27 45.7928 27 46.4958 27.186C47.1188 27.3508 47.7074 27.6219 48.235 27.987C48.8304 28.399 49.3161 28.9721 50.2876 30.1184L53.96 34.4517C55.6327 36.4255 56.4691 37.4124 56.7887 38.514C57.0704 39.4853 57.0704 40.5147 56.7887 41.486C56.4691 42.5876 55.6327 43.5745 53.96 45.5483L50.2875 49.8816Z" fill="url(#paint0_linear_147_17940)"/>
<path d="M38 24.5C38 34.165 30.165 42 20.5 42C10.835 42 3 34.165 3 24.5C3 14.835 10.835 7 20.5 7C30.165 7 38 14.835 38 24.5Z" fill="url(#paint1_linear_147_17940)"/>
<path d="M19 41.9671L19 32.1429C19 30.3427 19 29.4426 19.3681 28.755C19.6919 28.1502 20.2086 27.6585 20.8442 27.3503C21.5667 27 22.5125 27 24.4041 27L38 27C36.8919 35.4564 29.3119 42 20.1258 42C19.7477 42 19.3723 41.9889 19 41.9671Z" fill="url(#paint2_linear_147_17940)"/>
<defs>
<linearGradient id="paint0_linear_147_17940" x1="38" y1="27" x2="38" y2="53" gradientUnits="userSpaceOnUse">
<stop stop-color="#48E4FF"/>
<stop offset="1" stop-color="#00A6FF"/>
</linearGradient>
<linearGradient id="paint1_linear_147_17940" x1="20.5" y1="7" x2="20.5" y2="42" gradientUnits="userSpaceOnUse">
<stop stop-color="#05C3FF"/>
<stop offset="1" stop-color="#0075FF"/>
</linearGradient>
<linearGradient id="paint2_linear_147_17940" x1="28.5" y1="27" x2="28.5" y2="42" gradientUnits="userSpaceOnUse">
<stop stop-color="#008BFF"/>
<stop offset="1" stop-color="#0054FF"/>
</linearGradient>
</defs>
</svg>
