<svg width="60" height="60" viewBox="0 0 60 60" fill="none" xmlns="http://www.w3.org/2000/svg">
<path d="M9.71245 12.1184C10.6839 10.9721 11.1696 10.399 11.765 9.98699C12.2926 9.62192 12.8812 9.3508 13.5042 9.186C14.2072 9 14.966 9 16.4834 9L35.7117 9C37.5628 9 38.4883 9 39.1953 9.35423C39.8173 9.66582 40.3229 10.163 40.6398 10.7745C41 11.4697 41 12.3798 41 14.2V29.8C41 31.6202 41 32.5303 40.6398 33.2255C40.3229 33.837 39.8173 34.3342 39.1953 34.6458C38.4883 35 37.5628 35 35.7117 35H16.4834C14.966 35 14.2072 35 13.5042 34.814C12.8812 34.6492 12.2926 34.3781 11.765 34.013C11.1696 33.601 10.6839 33.0279 9.71245 31.8816L6.04004 27.5483C4.36731 25.5745 3.53094 24.5876 3.21134 23.486C2.92955 22.5147 2.92955 21.4853 3.21134 20.514C3.53094 19.4124 4.36731 18.4255 6.04004 16.4517L9.71245 12.1184Z" fill="url(#paint0_linear_147_17938)"/>
<path d="M51.2875 25.1184C50.3161 23.9721 49.8304 23.399 49.235 22.987C48.7074 22.6219 48.1188 22.3508 47.4958 22.186C46.7928 22 46.034 22 44.5166 22L25.2883 22C23.4372 22 22.5117 22 21.8047 22.3542C21.1827 22.6658 20.6771 23.163 20.3602 23.7745C20 24.4697 20 25.3798 20 27.2L20 42.8C20 44.6202 20 45.5303 20.3602 46.2255C20.6771 46.837 21.1827 47.3342 21.8047 47.6458C22.5117 48 23.4372 48 25.2883 48L44.5166 48C46.034 48 46.7928 48 47.4958 47.814C48.1188 47.6492 48.7074 47.3781 49.235 47.013C49.8304 46.601 50.3161 46.0279 51.2876 44.8816L54.96 40.5483C56.6327 38.5745 57.4691 37.5876 57.7887 36.486C58.0704 35.5147 58.0704 34.4853 57.7887 33.514C57.4691 32.4124 56.6327 31.4255 54.96 29.4517L51.2875 25.1184Z" fill="url(#paint1_linear_147_17938)"/>
<path d="M41 22L25.3053 22C23.4482 22 22.5197 22 21.8104 22.3542C21.1865 22.6658 20.6793 23.163 20.3614 23.7745C20 24.4697 20 25.3798 20 27.2L20 35L35.6947 35C37.5518 35 38.4803 35 39.1895 34.6458C39.8135 34.3342 40.3207 33.837 40.6386 33.2255C41 32.5303 41 31.6202 41 29.8V22Z" fill="url(#paint2_linear_147_17938)"/>
<defs>
<linearGradient id="paint0_linear_147_17938" x1="22" y1="9" x2="22" y2="35" gradientUnits="userSpaceOnUse">
<stop stop-color="#05C3FF"/>
<stop offset="1" stop-color="#0075FF"/>
</linearGradient>
<linearGradient id="paint1_linear_147_17938" x1="39" y1="22" x2="39" y2="48" gradientUnits="userSpaceOnUse">
<stop stop-color="#48E4FF"/>
<stop offset="1" stop-color="#00A6FF"/>
</linearGradient>
<linearGradient id="paint2_linear_147_17938" x1="30.5" y1="22" x2="30.5" y2="35" gradientUnits="userSpaceOnUse">
<stop stop-color="#008BFF"/>
<stop offset="1" stop-color="#0054FF"/>
</linearGradient>
</defs>
</svg>
