<svg width="60" height="60" viewBox="0 0 60 60" fill="none" xmlns="http://www.w3.org/2000/svg">
<path d="M8.80368 51.7432C14.9323 55.7054 22.203 58 30 58C37.797 58 45.0677 55.7054 51.1963 51.7432C53.2043 50.445 54.2083 49.7959 54.8923 48.4321C55.4163 47.3874 55.6031 45.7005 55.3203 44.5664C54.9511 43.0861 53.9122 42.0282 51.8343 39.9124L36.3927 24.1892C34.159 21.9148 33.0421 20.7776 31.7497 20.3525C30.6132 19.9787 29.3868 19.9787 28.2503 20.3525C26.9579 20.7776 25.841 21.9148 23.6073 24.1892L8.16576 39.9124C6.08784 42.0282 5.04887 43.0861 4.67971 44.5664C4.3969 45.7005 4.58365 47.3874 5.10766 48.4321C5.79167 49.7959 6.79568 50.445 8.80368 51.7432Z" fill="url(#paint0_linear_147_17946)"/>
<path d="M45.6801 17.68C45.6801 26.3398 38.6599 33.36 30.0001 33.36C21.3402 33.36 14.3201 26.3398 14.3201 17.68C14.3201 9.02018 21.3402 2 30.0001 2C38.6599 2 45.6801 9.02018 45.6801 17.68Z" fill="url(#paint1_linear_147_17946)"/>
<path fill-rule="evenodd" clip-rule="evenodd" d="M19.0132 28.8672L23.6073 24.1892L23.6074 24.1892C25.841 21.9148 26.9579 20.7776 28.2503 20.3525C29.3868 19.9787 30.6132 19.9787 31.7497 20.3525C33.0421 20.7776 34.159 21.9148 36.3926 24.1892L36.3927 24.1892L40.9868 28.8672C38.1576 31.646 34.279 33.36 30 33.36C25.721 33.36 21.8424 31.646 19.0132 28.8672Z" fill="url(#paint2_linear_147_17946)"/>
<defs>
<linearGradient id="paint0_linear_147_17946" x1="30" y1="20.0721" x2="30" y2="58" gradientUnits="userSpaceOnUse">
<stop stop-color="#05C3FF"/>
<stop offset="1" stop-color="#0075FF"/>
</linearGradient>
<linearGradient id="paint1_linear_147_17946" x1="30.0001" y1="2" x2="30.0001" y2="33.36" gradientUnits="userSpaceOnUse">
<stop stop-color="#48E4FF"/>
<stop offset="1" stop-color="#00A6FF"/>
</linearGradient>
<linearGradient id="paint2_linear_147_17946" x1="30" y1="20.0721" x2="30" y2="33.36" gradientUnits="userSpaceOnUse">
<stop stop-color="#008BFF"/>
<stop offset="1" stop-color="#0054FF"/>
</linearGradient>
</defs>
</svg>
