<svg width="85" height="32" viewBox="0 0 85 32" fill="none" xmlns="http://www.w3.org/2000/svg">
<path d="M57.0711 18.1494L57.907 18.3882C57.907 18.6271 57.7876 18.8659 57.6681 18.9853C57.5487 19.1047 57.4293 19.2241 57.1905 19.3435C57.0711 19.4629 56.8323 19.4629 56.4741 19.4629C56.1159 19.4629 55.8771 19.4629 55.6383 19.3435C55.3995 19.2241 55.2801 19.1047 55.0413 18.8659C55.0413 18.627 54.9219 18.2688 54.9219 17.9106C54.9219 17.433 55.0413 16.9554 55.2801 16.7166C55.5189 16.4778 55.8771 16.3584 56.4741 16.3584C56.8323 16.3584 57.1905 16.4778 57.4293 16.5972C57.6681 16.7166 57.7876 16.9554 57.907 17.3136L57.0711 17.5524C57.0711 17.433 56.9517 17.433 56.9517 17.3136C56.9517 17.1942 56.8323 17.1942 56.7129 17.1942C56.5935 17.1942 56.5935 17.1942 56.4741 17.1942C56.2353 17.1942 56.1159 17.3136 55.9965 17.433C55.8771 17.5524 55.8771 17.7912 55.8771 18.03C55.8771 18.3883 55.8771 18.6271 55.9965 18.7465C56.1159 18.8659 56.2353 18.9853 56.4741 18.9853C56.7129 18.9853 56.8323 18.9853 56.8323 18.8659C56.9517 18.5076 57.0711 18.3883 57.0711 18.1494Z" fill="#B1B6C0"/>
<path d="M58.2695 17.9109C58.2695 17.4333 58.3889 17.0751 58.7471 16.7169C58.986 16.4781 59.4636 16.2393 59.9412 16.2393C60.4188 16.2393 60.8964 16.3587 61.1352 16.5975C61.374 16.8363 61.4934 17.3139 61.4934 17.7915C61.4934 18.1497 61.374 18.3885 61.2546 18.6273C61.1352 18.8661 61.0158 18.9855 60.777 19.1049C60.5382 19.2243 60.2994 19.3437 59.9412 19.3437C59.583 19.3437 59.3442 19.3437 59.1054 19.2243C58.8665 19.1049 58.7471 18.9855 58.5083 18.7467C58.2695 18.5079 58.2695 18.2691 58.2695 17.9109ZM59.2248 17.9109C59.2248 18.2691 59.2248 18.3885 59.3442 18.6273C59.4636 18.7467 59.583 18.8661 59.8218 18.8661C60.0606 18.8661 60.18 18.7467 60.2994 18.6273C60.4188 18.5079 60.4188 18.2691 60.4188 17.9109C60.4188 17.6721 60.4188 17.4333 60.2994 17.3139C60.18 17.1945 60.0606 17.0751 59.8218 17.0751C59.583 17.0751 59.4636 17.1945 59.3442 17.3139C59.2248 17.3139 59.2248 17.5527 59.2248 17.9109Z" fill="#B1B6C0"/>
<path d="M61.9766 16.3584H63.1706L63.6482 18.2688L64.1258 16.3584H65.3198V19.4629H64.6034V17.0748L64.0064 19.4629H63.29L62.693 17.0748V19.4629H61.9766V16.3584Z" fill="#B1B6C0"/>
<path d="M65.9102 16.3584H67.4624C67.8206 16.3584 68.0594 16.4778 68.1788 16.5972C68.2982 16.7166 68.4176 16.9554 68.4176 17.3136C68.4176 17.6718 68.2982 17.9106 68.1788 18.03C67.94 18.1494 67.7012 18.2688 67.343 18.2688H66.8654V19.4629H65.9102V16.3584ZM66.8654 17.6718H67.1042C67.343 17.6718 67.4624 17.6718 67.4624 17.5524C67.5818 17.433 67.5818 17.433 67.5818 17.3136C67.5818 17.1942 67.5818 17.1942 67.4624 17.0748C67.343 16.9554 67.2236 16.9554 67.1042 16.9554H66.8654V17.6718Z" fill="#B1B6C0"/>
<path d="M69.0117 16.3584H69.9669V18.6271H71.3998V19.3435H69.0117V16.3584Z" fill="#B1B6C0"/>
<path d="M72.0022 16.3584H72.838V19.4629H71.8828V16.3584H72.0022Z" fill="#B1B6C0"/>
<path d="M75.4618 18.8661H74.3871L74.2677 19.3437H73.3125L74.5065 16.2393H75.5812L76.7752 19.3437H75.82L75.4618 18.8661ZM75.2229 18.2691L74.8647 17.1945L74.5065 18.2691H75.2229Z" fill="#B1B6C0"/>
<path d="M76.8945 16.3584H77.7303L78.9244 18.03V16.3584H79.7602V19.4629H78.9244L77.7303 17.7912V19.4629H76.8945V16.3584Z" fill="#B1B6C0"/>
<path d="M80.2344 16.3584H83.1V17.0748H82.1448V19.3435H81.1896V17.0748H80.2344V16.3584Z" fill="#B1B6C0"/>
<path fill-rule="evenodd" clip-rule="evenodd" d="M48.3582 20.1791L45.6119 21.0149C45.7406 20.8091 45.8692 20.5978 45.999 20.3845L45.9991 20.3844L45.9991 20.3843C46.4718 19.6076 46.9603 18.8049 47.5223 18.1492L48.3582 20.1791ZM39.403 0L44.7761 11.9403C44.144 12.7831 42.3139 15.2782 40.598 17.7492V9.85018H35.7025V20.5793C35.0365 20.1311 34.338 19.8112 33.6685 19.6848V19.1636H33.549C33.549 19.1636 33.0715 19.6413 30.6834 19.7607C30.1681 19.8465 29.8999 19.8089 29.7011 19.781C29.6234 19.7701 29.5564 19.7607 29.4893 19.7607C26.146 19.1636 26.0267 16.7756 26.0267 16.7756V16.6562V15.701V15.5816C26.0267 15.5816 26.2654 12.9547 29.4893 12.7159H30.6834C32.1161 12.8353 33.3103 13.5517 33.3103 13.5517L33.4296 10.3278C33.4296 10.3278 33.4296 10.2084 33.3103 10.2084C33.3103 10.2084 32.7132 9.85021 30.6834 9.7308C30.6627 9.7308 30.5954 9.72722 30.4958 9.72191L30.4958 9.72191C30.0205 9.69659 28.8096 9.63209 28.4147 9.7308C21.3699 10.3278 21.0117 15.4622 21.0117 15.701V16.895C21.0117 17.0144 21.0117 22.2681 28.4147 22.7457H30.6834L30.7206 22.7456C30.861 23.6259 31.2848 24.5662 31.8806 25.4329L10.8657 32L0 2.26866L39.403 0ZM41.0756 5.79048C41.0756 7.34272 39.7622 8.65616 38.0905 8.65616C36.5383 8.65616 35.1055 7.34272 35.1055 5.79048C35.1055 4.23824 36.4189 2.9248 38.0905 2.9248C39.7622 2.9248 41.0756 4.23824 41.0756 5.79048ZM12.2957 22.7462L7.51953 22.6267V9.96999C7.51953 9.85058 7.63893 9.85059 7.63893 9.85059H13.8479C15.4001 9.85059 20.1763 10.2088 20.1763 14.2685C20.1763 19.4028 12.5344 18.8058 12.5344 18.8058C12.415 18.8058 12.415 18.9252 12.415 18.9252V22.6267C12.415 22.7462 12.2957 22.7462 12.2957 22.7462ZM12.2957 12.5969V15.9401H13.6091C13.6091 15.9401 15.0419 15.8207 15.2807 14.5073V13.7909C15.1613 12.7163 13.4897 12.5969 13.4897 12.5969H12.2957Z" fill="#B1B6C0"/>
<path d="M38.3284 28.776C38.6866 28.776 39.0448 28.776 39.5224 28.5371C41.3134 27.5819 47.0448 13.373 53.2538 8.9551L53.3731 8.8357V8.71629C53.3731 8.71629 53.3731 8.47749 52.4179 8.47749C46.9253 8.35808 41.194 19.8208 38.209 24.3581H37.9701C37.9701 24.3581 35.9403 21.97 34.2687 21.1342C34.2687 21.1342 34.0298 21.0148 33.791 21.0148C33.6716 21.0148 32.8358 21.1342 32.4776 21.6118C32 22.0895 32 22.3282 32 22.9252C32 22.9252 32 23.164 32.1194 23.2835C32.597 23.9999 34.5075 26.7461 36.0597 28.179C36.4179 28.2984 36.7761 28.776 38.3284 28.776Z" fill="#B1B6C0"/>
<path d="M54.8047 4.65723H59.342C60.2972 4.65723 61.0136 4.77663 61.4913 5.01544C62.0883 5.25424 62.4465 5.61245 62.8047 6.09006C63.1629 6.56768 63.4017 7.04529 63.6405 7.6423C63.7599 8.23932 63.8793 8.83633 63.8793 9.55275C63.8793 10.6274 63.7599 11.4632 63.5211 12.0602C63.2823 12.6572 62.9241 13.1348 62.5659 13.493C62.0883 13.8513 61.7301 14.2095 61.133 14.3289C60.4166 14.5677 59.8196 14.5677 59.342 14.5677H54.8047V4.65723ZM57.9092 6.92589V12.299H58.6256C59.2226 12.299 59.7002 12.1796 59.939 12.0602C60.1778 11.9408 60.4166 11.702 60.536 11.3438C60.6554 10.9856 60.7748 10.3886 60.7748 9.67215C60.7748 8.59752 60.6554 7.88111 60.2972 7.5229C59.939 7.16469 59.342 6.92589 58.6256 6.92589H57.9092Z" fill="#B1B6C0"/>
<path d="M64.832 11.3433L67.6977 11.1045C67.8171 11.5822 67.9365 11.9404 68.0559 12.1792C68.4141 12.5374 68.7723 12.7762 69.3693 12.7762C69.847 12.7762 70.0858 12.6568 70.3246 12.418C70.5634 12.1792 70.6828 11.9404 70.6828 11.7016C70.6828 11.4627 70.5634 11.2239 70.3246 10.9851C70.0858 10.7463 69.6082 10.6269 68.7723 10.3881C67.4589 10.0299 66.5037 9.6717 65.9067 9.19409C65.3096 8.71648 65.0708 8.00006 65.0708 7.28364C65.0708 6.80603 65.1902 6.32841 65.5485 5.8508C65.7873 5.37319 66.2649 5.01498 66.8619 4.77618C67.4589 4.53737 68.2947 4.41797 69.2499 4.41797C70.5634 4.41797 71.5186 4.65678 72.1156 5.13439C72.832 5.612 73.1902 6.32841 73.3096 7.40305L70.444 7.52245C70.3246 7.04484 70.2052 6.80603 69.9664 6.56723C69.7276 6.32841 69.3693 6.20901 68.8917 6.20901C68.5335 6.20901 68.2947 6.32841 68.0559 6.44781V7.16424C68.0559 7.28364 68.1753 7.52245 68.2947 7.64185C68.4141 7.76125 68.7723 7.88066 69.3693 8.00006C70.6828 8.23887 71.638 8.59707 72.235 8.83588C72.832 9.07468 73.1902 9.55229 73.5485 9.9105C73.7873 10.3881 73.9067 10.8657 73.9067 11.3433C73.9067 11.9404 73.7873 12.5374 73.4291 13.1344C73.0708 13.7314 72.5932 14.0896 71.9962 14.3284C71.3992 14.5672 70.5634 14.6866 69.6082 14.6866C67.9365 14.6866 66.7425 14.3284 66.1455 13.7314C65.1902 13.1344 64.832 12.2986 64.832 11.3433Z" fill="#B1B6C0"/>
<path d="M74.625 11.3433L77.4907 11.1045C77.6101 11.5822 77.7295 11.9404 77.8489 12.1792C78.2071 12.5374 78.5653 12.7762 79.1623 12.7762C79.6399 12.7762 79.8787 12.6568 80.1175 12.418C80.3563 12.1792 80.4757 11.9404 80.4757 11.7016C80.4757 11.4627 80.3563 11.2239 80.1175 10.9851C79.8787 10.7463 79.4011 10.6269 78.5653 10.3881C77.2519 10.0299 76.2966 9.6717 75.6996 9.19409C75.1026 8.71648 74.8638 8.00006 74.8638 7.28364C74.8638 6.80603 74.9832 6.32841 75.3414 5.8508C75.5802 5.37319 76.0578 5.01498 76.6548 4.77618C77.2519 4.53737 78.0877 4.41797 79.0429 4.41797C80.3563 4.41797 81.3116 4.65678 81.9086 5.13439C82.625 5.612 82.9832 6.32841 83.1026 7.40305L80.2369 7.52245C80.1175 7.04484 79.9981 6.80603 79.7593 6.56723C79.5205 6.32841 79.1623 6.20901 78.6847 6.20901C78.3265 6.20901 78.0877 6.32841 77.8489 6.44781C77.6101 6.56723 77.6101 6.80603 77.6101 7.04484C77.6101 7.16424 77.7295 7.40305 77.8489 7.52245C77.9683 7.64185 78.3265 7.76125 78.9235 7.88066C80.2369 8.11946 81.1922 8.47767 81.7892 8.71648C82.3862 8.95528 82.7444 9.43289 83.1026 9.7911C83.3414 10.2687 83.4608 10.7463 83.4608 11.2239C83.4608 11.821 83.3414 12.418 82.9832 13.015C82.625 13.612 82.1474 13.9702 81.5504 14.209C80.9533 14.4478 80.1175 14.5672 79.1623 14.5672C77.4907 14.5672 76.2966 14.209 75.6996 13.612C74.9832 13.1344 74.625 12.2986 74.625 11.3433V11.3433Z" fill="#B1B6C0"/>
</svg>
