<svg width="88" height="91" viewBox="0 0 88 91" fill="none" xmlns="http://www.w3.org/2000/svg">
<path d="M69.7634 57.1751C71.2799 57.7585 71.8632 60.0305 71.9792 61.0215C72.2129 62.8296 71.6893 63.529 71.1059 63.529C70.5225 63.529 69.7054 62.8296 68.8322 61.431C67.9571 60.0305 67.6074 58.4579 68.0748 57.6408C68.3647 57.1153 69.0043 56.8834 69.7634 57.1751ZM60.9039 63.7627C61.8369 63.7627 62.8859 64.1703 63.819 64.9856C65.6253 66.5021 66.1507 68.2505 65.2177 69.5332C64.6923 70.1745 63.819 70.5822 62.828 70.5822C61.8369 70.5822 60.7879 70.2325 60.0886 69.5911C58.4562 68.1925 57.9906 65.8589 59.0378 64.578C59.4472 64.0526 60.0886 63.7627 60.9039 63.7627ZM40.5034 80.6085C18.351 80.6085 0.398193 62.6539 0.398193 40.5033C0.398193 18.3526 18.3528 0.399872 40.5016 0.399872C62.6522 0.399872 80.6068 18.3545 80.6068 40.5033C80.6068 48.0221 78.5088 55.0771 74.9541 61.0813C74.8363 61.2552 74.5446 61.1972 74.4867 60.9635C73.088 51.113 67.0838 45.6904 58.3402 44.0598C57.5811 43.942 57.4651 43.4764 58.4562 43.3604C61.1376 43.1267 64.926 43.1847 66.9081 43.5344C67.024 42.5433 67.0838 41.4943 67.0838 40.4453C67.0838 25.8135 55.1914 13.9211 40.5596 13.9211C25.9296 13.9211 14.0372 25.8135 14.0372 40.4453C14.0372 55.0771 25.9296 66.9695 40.5614 66.9695H41.7843C41.3689 64.6029 41.1928 62.2005 41.2589 59.7986C41.3187 58.1662 41.6684 57.9324 42.3677 59.2152C46.0402 65.569 51.287 71.2815 61.5452 73.5553C69.9391 75.4214 78.3331 77.5774 87.3683 89.0604C88.1836 90.0514 86.9607 91.1004 86.0276 90.2851C76.8184 82.1231 68.4245 79.4417 60.7879 79.4417C52.2183 79.5015 46.3916 80.6085 40.5034 80.6085Z" fill="#FD8C00"/>
</svg>
