<svg width="40" height="40" viewBox="0 0 40 40" fill="none" xmlns="http://www.w3.org/2000/svg">
<path fill-rule="evenodd" clip-rule="evenodd" d="M20.0009 0.399902C12.9678 0.399902 7.86399 1.37437 4.61948 4.61846C1.37493 7.86261 0.399979 12.9663 0.399979 19.9999C0.399979 27.0449 1.41717 32.1444 4.68113 35.3853C7.94225 38.6234 13.0391 39.5999 20.0009 39.5999C21.9554 39.5999 24.144 38.6559 26.1863 37.3915C28.2807 36.095 30.4385 34.3243 32.3815 32.3812C34.3245 30.4382 36.0951 28.2803 37.3917 26.1858C38.656 24.1433 39.6 21.9545 39.6 19.9999C39.6 12.9664 38.6255 7.86273 35.3815 4.61856C32.1374 1.37435 27.0339 0.399902 20.0009 0.399902ZM29.6986 22.6768C31.3771 22.6038 33.4372 22.5143 35.9191 22.0776C35.6342 22.7999 35.2201 23.6141 34.6708 24.5015C33.5299 26.3445 31.9256 28.3116 30.1187 30.1185C28.3118 31.9255 26.3448 33.5298 24.5019 34.6707C23.6146 35.2201 22.8006 35.6341 22.0784 35.919C22.5148 33.4373 22.6042 31.3773 22.677 29.699C22.6921 29.353 22.7064 29.0228 22.7229 28.7089C22.8466 26.3568 23.0936 25.169 24.1313 24.1312C25.1691 23.0935 26.3569 22.8465 28.7091 22.7227C29.0229 22.7062 29.3527 22.6918 29.6986 22.6768Z" fill="#FF3571"/>
</svg>
