<svg width="60" height="60" viewBox="0 0 60 60" fill="none" xmlns="http://www.w3.org/2000/svg">
<path d="M15.9824 33.649C16.1778 30.8556 16.2754 29.4589 16.8937 28.4299C17.4375 27.5249 18.2539 26.8152 19.2259 26.4026C20.3308 25.9336 21.7276 26.0312 24.521 26.2266L48.4625 27.9007C51.256 28.0961 52.6527 28.1937 53.6816 28.812C54.5867 29.3558 55.2964 30.1722 55.709 31.1442C56.178 32.2491 56.0803 33.6459 55.885 36.4393L55.2572 45.4174C55.0619 48.2108 54.9642 49.6075 54.3459 50.6365C53.8021 51.5416 52.9857 52.2512 52.0138 52.6638C50.9088 53.1328 49.5121 53.0352 46.7186 52.8398L22.7771 51.1657C19.9836 50.9703 18.5869 50.8727 17.558 50.2544C16.6529 49.7106 15.9432 48.8942 15.5307 47.9222C15.0616 46.8173 15.1593 45.4206 15.3546 42.6271L15.9824 33.649Z" fill="url(#paint0_linear_147_17934)"/>
<path d="M5.13914 21.0743C4.65288 18.3166 4.40975 16.9378 4.76071 15.7898C5.06943 14.7801 5.68989 13.894 6.53316 13.2585C7.49184 12.5361 8.8707 12.293 11.6284 11.8067L35.2638 7.63914C38.0215 7.15288 39.4004 6.90975 40.5483 7.26071C41.5581 7.56943 42.4442 8.18989 43.0796 9.03316C43.8021 9.99184 44.0452 11.3707 44.5315 14.1284L46.0943 22.9917C46.5805 25.7494 46.8237 27.1283 46.4727 28.2762C46.164 29.286 45.5435 30.1721 44.7003 30.8075C43.7416 31.5299 42.3627 31.7731 39.605 32.2593L15.9696 36.4269C13.2119 36.9132 11.833 37.1563 10.6851 36.8053C9.67534 36.4966 8.78924 35.8761 8.15378 35.0329C7.43137 34.0742 7.18824 32.6953 6.70198 29.9376L5.13914 21.0743Z" fill="url(#paint1_linear_147_17934)"/>
<path d="M46.588 27.7695C46.5611 27.9453 46.5232 28.1131 46.4734 28.2763C46.1646 29.286 45.5442 30.1721 44.7009 30.8076C43.7422 31.53 42.3634 31.7731 39.6057 32.2594L15.9703 36.427C15.9082 36.4379 15.8468 36.4487 15.7861 36.4594L15.9827 33.6489C16.178 30.8555 16.2757 29.4588 16.8939 28.4298C17.4377 27.5247 18.2541 26.8151 19.2261 26.4025C20.3311 25.9335 21.7278 26.0311 24.5212 26.2265L46.588 27.7695Z" fill="url(#paint2_linear_147_17934)"/>
<defs>
<linearGradient id="paint0_linear_147_17934" x1="35.6198" y1="26.0646" x2="35.6198" y2="53.0018" gradientUnits="userSpaceOnUse">
<stop stop-color="#FFAE05"/>
<stop offset="1" stop-color="#FF7600"/>
</linearGradient>
<linearGradient id="paint1_linear_147_17934" x1="25.6167" y1="7.09473" x2="25.6167" y2="36.9713" gradientUnits="userSpaceOnUse">
<stop stop-color="#FFCC48"/>
<stop offset="1" stop-color="#FFBB00"/>
</linearGradient>
<linearGradient id="paint2_linear_147_17934" x1="31.1871" y1="26.0645" x2="31.1871" y2="36.4594" gradientUnits="userSpaceOnUse">
<stop stop-color="#FF7000"/>
<stop offset="1" stop-color="#FF5500"/>
</linearGradient>
</defs>
</svg>
