<svg width="94" height="34" viewBox="0 0 94 34" fill="none" xmlns="http://www.w3.org/2000/svg">
<path d="M60.9609 0.544617C54.4068 0.544617 48.5496 4.2814 48.5496 11.1854C48.5496 19.103 58.9375 19.6499 58.9375 23.6274C58.9375 25.3022 57.1926 26.8014 54.2124 26.8014C49.983 26.8014 46.8219 24.7066 46.8219 24.7066L45.4693 31.6735C45.4693 31.6735 49.1109 33.443 53.9455 33.443C61.1114 33.443 66.75 29.5227 66.75 22.5007C66.75 14.1343 56.3189 13.6037 56.3189 9.91184C56.3189 8.59989 57.7513 7.16238 60.7229 7.16238C64.0758 7.16238 66.8113 8.68589 66.8113 8.68589L68.135 1.95704C68.135 1.95704 65.1586 0.544617 60.9609 0.544617ZM0.99635 1.05246L0.837646 2.06813C0.837646 2.06813 3.59501 2.62322 6.07846 3.73051C9.27611 5.00023 9.5039 5.7394 10.0424 8.03522L15.9108 32.9193H23.7775L35.8966 1.05246H28.048L20.2608 22.7189L17.0831 4.3534C16.7917 2.25149 15.3155 1.05246 13.5087 1.05246H0.99635ZM39.0527 1.05246L32.8957 32.9193H40.38L46.5153 1.05246H39.0527ZM80.7952 1.05246C78.9905 1.05246 78.0343 2.11527 77.3326 3.97252L66.3677 32.9193H74.2163L75.7348 28.0948H85.2966L86.22 32.9193H93.1452L87.1037 1.05246H80.7952ZM81.816 9.66189L84.1424 21.6199H77.9097L81.816 9.66189Z" fill="#1434CB"/>
</svg>
