<svg width="156" height="40" viewBox="0 0 156 40" fill="none" xmlns="http://www.w3.org/2000/svg">
<g clip-path="url(#clip0_87404_1821)">
<path d="M40 20C40 8.9543 31.0457 0 20 0C8.9543 0 0 8.9543 0 20C0 31.0457 8.9543 40 20 40C31.0457 40 40 31.0457 40 20Z" fill="#3077F7"/>
<path d="M14.9408 17.2063C15.02 17.1365 15.0595 17.1016 15.0658 17.0675C15.0712 17.0377 15.0629 17.0072 15.0432 16.9843C15.0205 16.958 14.9696 16.9481 14.8677 16.9283C13.6796 16.697 12.4496 16.5614 11.3706 16.5501C11.3189 16.5496 11.293 16.5493 11.2729 16.5396C11.255 16.531 11.2405 16.5176 11.2303 16.5006C11.2189 16.4814 11.2165 16.4559 11.2115 16.4048L10.8115 12.2911C10.8065 12.24 10.804 12.2145 10.8116 12.1933C10.8184 12.1747 10.8305 12.1584 10.8465 12.1467C10.8646 12.1333 10.8898 12.1285 10.94 12.1187C16.967 10.9527 22.9659 10.8929 29.0832 12.121C29.1333 12.1311 29.1583 12.1361 29.1764 12.1495C29.1922 12.1613 29.2043 12.1776 29.2109 12.1962C29.2184 12.2174 29.2158 12.2428 29.2107 12.2937L28.7956 16.4054C28.7905 16.4563 28.7879 16.4817 28.7765 16.5008C28.7664 16.5178 28.7518 16.5311 28.734 16.5397C28.714 16.5493 28.6882 16.5496 28.6366 16.5501C27.5575 16.5614 26.3272 16.697 25.1389 16.9283C25.0371 16.9481 24.9861 16.958 24.9635 16.9843C24.9438 17.0072 24.9355 17.0377 24.9409 17.0675C24.9471 17.1016 24.9867 17.1365 25.0659 17.2063C27.929 19.7303 29.9539 23.0558 29.9994 27.7276C29.9999 27.7837 30.0002 27.8118 29.9894 27.8334C29.9799 27.8523 29.9644 27.8679 29.9456 27.8776C29.9241 27.8886 29.8961 27.8886 29.8402 27.8886H25.7157C25.6597 27.8886 25.6317 27.8886 25.6104 27.8779C25.5916 27.8684 25.5766 27.8536 25.5668 27.8348C25.5558 27.8138 25.5554 27.785 25.5546 27.7276C25.5011 23.8281 23.4985 21.2285 20.0906 19.0031C20.0591 18.9826 20.0433 18.9723 20.0263 18.9683C20.0113 18.9647 19.9954 18.9647 19.9804 18.9683C19.9633 18.9723 19.9476 18.9826 19.9161 19.0031C16.5082 21.2285 14.5055 23.8281 14.4521 27.7276C14.4513 27.785 14.4509 27.8138 14.4399 27.8348C14.4301 27.8536 14.4151 27.8684 14.3962 27.8779C14.375 27.8886 14.347 27.8886 14.291 27.8886H10.1665C10.1105 27.8886 10.0825 27.8886 10.061 27.8776C10.0423 27.8679 10.0268 27.8523 10.0173 27.8334C10.0065 27.8118 10.0067 27.7837 10.0073 27.7276C10.0528 23.0558 12.0777 19.7303 14.9408 17.2063Z" fill="white"/>
<path d="M98.367 28.5713H83.4275V11.4285H88.5714V23.6734H98.367V28.5713Z" fill="#0E1420"/>
<path d="M118.724 28.5713H113.162L112.054 25.5346H105.385L104.277 28.5713H98.8623L106.148 11.4285H111.415L118.724 28.5713ZM106.812 21.2734H110.627L108.707 16.3264L106.812 21.2734Z" fill="#0E1420"/>
<path d="M127.291 22.9632L131.524 11.4285H137.013L129.949 28.5713H124.485L117.446 11.4285H123.058L127.291 22.9632Z" fill="#0E1420"/>
<path d="M155.57 28.5713H150.008L148.901 25.5346H142.231L141.123 28.5713H135.708L142.994 11.4285H148.261L155.57 28.5713ZM143.658 21.2734H147.473L145.553 16.3264L143.658 21.2734Z" fill="#0E1420"/>
<path d="M49.5114 29L46.2386 15.9091H50.9432L52.4432 23.8864H52.5455L54.2159 15.9091H58.7841L60.5227 23.8182H60.625L62.0568 15.9091H66.7614L63.4886 29H58.4091L56.5682 21.9773H56.4318L54.5909 29H49.5114ZM71.8409 29.2045C71.0057 29.2045 70.267 29.0682 69.625 28.7955C68.9886 28.517 68.4886 28.0966 68.125 27.5341C67.7614 26.9716 67.5795 26.2557 67.5795 25.3864C67.5795 24.6705 67.7017 24.0597 67.946 23.554C68.1903 23.0426 68.5312 22.625 68.9688 22.3011C69.4062 21.9773 69.9148 21.7301 70.4943 21.5597C71.0795 21.3892 71.7102 21.2784 72.3864 21.2273C73.1193 21.1705 73.7074 21.1023 74.1506 21.0227C74.5994 20.9375 74.9233 20.821 75.1222 20.6733C75.321 20.5199 75.4205 20.3182 75.4205 20.0682V20.0341C75.4205 19.6932 75.2898 19.4318 75.0284 19.25C74.767 19.0682 74.4318 18.9773 74.0227 18.9773C73.5739 18.9773 73.2074 19.0767 72.9233 19.2756C72.6449 19.4687 72.4773 19.767 72.4205 20.1705H68.0909C68.1477 19.375 68.4006 18.642 68.8494 17.9716C69.304 17.2955 69.9659 16.7557 70.8352 16.3523C71.7045 15.9432 72.7898 15.7386 74.0909 15.7386C75.0284 15.7386 75.8693 15.8494 76.6136 16.071C77.358 16.2869 77.9915 16.5909 78.5142 16.983C79.0369 17.3693 79.4347 17.8239 79.7074 18.3466C79.9858 18.8636 80.125 19.4261 80.125 20.0341V29H75.7273V27.1591H75.625C75.3636 27.6477 75.0455 28.0426 74.6705 28.3438C74.3011 28.6449 73.8778 28.8636 73.4006 29C72.929 29.1364 72.4091 29.2045 71.8409 29.2045ZM73.375 26.2386C73.733 26.2386 74.0682 26.1648 74.3807 26.017C74.6989 25.8693 74.9574 25.6562 75.1562 25.3778C75.3551 25.0994 75.4545 24.7614 75.4545 24.3636V23.2727C75.3295 23.3239 75.196 23.3722 75.054 23.4176C74.9176 23.4631 74.7699 23.5057 74.6108 23.5455C74.4574 23.5852 74.2926 23.6222 74.1165 23.6562C73.946 23.6903 73.767 23.7216 73.5795 23.75C73.2159 23.8068 72.9176 23.9006 72.6847 24.0312C72.4574 24.1562 72.2869 24.3125 72.1733 24.5C72.0653 24.6818 72.0114 24.8864 72.0114 25.1136C72.0114 25.4773 72.1392 25.7557 72.3949 25.9489C72.6506 26.142 72.9773 26.2386 73.375 26.2386Z" fill="#0E1420"/>
</g>
<defs>
<clipPath id="clip0_87404_1821">
<rect width="156" height="40" fill="white"/>
</clipPath>
</defs>
</svg>
