<svg width="66" height="47" viewBox="0 0 66 47" fill="none" xmlns="http://www.w3.org/2000/svg">
<path d="M41.8753 0.185181C28.9123 0.185181 18.601 10.6443 18.601 23.4603C18.601 36.4236 29.0596 46.7354 41.8753 46.7354C54.6908 46.7354 65.1496 36.2762 65.1496 23.4603C65.2969 10.6443 54.6908 0.185181 41.8753 0.185181ZM41.8753 32.1515C37.1615 32.1515 33.1841 28.1743 33.1841 23.4603C33.1841 18.7463 37.1615 14.7689 41.8753 14.7689C46.589 14.7689 50.5663 18.7463 50.5663 23.4603C50.5663 28.1743 46.7364 32.1515 41.8753 32.1515Z" fill="#8B3FFD"/>
<path d="M18.603 5.35748V41.5632H10.6041L0.500183 5.35748H18.603Z" fill="#8B3FFD"/>
</svg>
